<svg width="42" height="42" viewBox="0 0 42 42" fill="none" xmlns="http://www.w3.org/2000/svg">
<path fill-rule="evenodd" clip-rule="evenodd" d="M35.3387 12.4115C38.5803 12.4115 41.2082 9.78368 41.2082 6.54205C41.2082 3.30041 38.5803 0.672546 35.3387 0.672546C32.0971 0.672546 29.4692 3.30041 29.4692 6.54205C29.4692 9.78368 32.0971 12.4115 35.3387 12.4115Z" fill="#8055FA"/>
<path fill-rule="evenodd" clip-rule="evenodd" d="M35.3385 26.4943C38.5802 26.4943 41.208 23.8668 41.208 20.6256C41.208 17.3844 38.5802 14.7569 35.3385 14.7569C32.0969 14.7569 29.469 17.3844 29.469 20.6256C29.469 23.8668 32.0969 26.4943 35.3385 26.4943Z" fill="#7550FB"/>
<path fill-rule="evenodd" clip-rule="evenodd" d="M35.3385 41.1025C38.5802 41.1025 41.208 38.4747 41.208 35.233C41.208 31.9914 38.5802 29.3635 35.3385 29.3635C32.0969 29.3635 29.469 31.9914 29.469 35.233C29.469 38.4747 32.0969 41.1025 35.3385 41.1025Z" fill="#6A4AFC"/>
<path d="M20.7312 26.4941C23.9724 26.4941 26.6 23.8666 26.6 20.6254C26.6 17.3842 23.9724 14.7567 20.7312 14.7567C17.49 14.7567 14.8625 17.3842 14.8625 20.6254C14.8625 23.8666 17.49 26.4941 20.7312 26.4941Z" fill="#6045FD"/>
<path d="M20.7312 26.4941C23.9724 26.4941 26.6 23.8666 26.6 20.6254C26.6 17.3842 23.9724 14.7567 20.7312 14.7567C17.49 14.7567 14.8625 17.3842 14.8625 20.6254C14.8625 23.8666 17.49 26.4941 20.7312 26.4941Z" stroke="#A0A3BD"/>
<path fill-rule="evenodd" clip-rule="evenodd" d="M20.7306 41.1024C23.9718 41.1024 26.5993 38.4746 26.5993 35.2329C26.5993 31.9913 23.9718 29.3634 20.7306 29.3634C17.4894 29.3634 14.8619 31.9913 14.8619 35.2329C14.8619 38.4746 17.4894 41.1024 20.7306 41.1024Z" fill="#553FFE"/>
<path fill-rule="evenodd" clip-rule="evenodd" d="M6.64684 41.1025C9.88848 41.1025 12.5163 38.4746 12.5163 35.233C12.5163 31.9913 9.88848 29.3635 6.64684 29.3635C3.40521 29.3635 0.777344 31.9913 0.777344 35.233C0.777344 38.4746 3.40521 41.1025 6.64684 41.1025Z" fill="#4A3AFF"/>
</svg>
